<svg id="e24rw3t964zt1" xmlns="http://www.w3.org/2000/svg" xmlns:xlink="http://www.w3.org/1999/xlink" viewBox="0 0 1440 320" shape-rendering="geometricPrecision" text-rendering="geometricPrecision">
<style>
<![CDATA[#e24rw3t964zt2_to {animation: e24rw3t964zt2_to__to 70000ms linear infinite normal forwards}@keyframes e24rw3t964zt2_to__to { 0% {transform: translate(720px,208px)} 50% {transform: translate(-660.461616px,208px)} 100% {transform: translate(-2229.010511px,208px)} }#e24rw3t964zt3_to {animation: e24rw3t964zt3_to__to 70000ms linear infinite normal forwards}@keyframes e24rw3t964zt3_to__to { 0% {transform: translate(2141.093552px,208px)} 50% {transform: translate(757.812896px,208px)} 100% {transform: translate(-697.061093px,208px)} }#e24rw3t964zt4_to {animation: e24rw3t964zt4_to__to 70000ms linear infinite normal forwards}@keyframes e24rw3t964zt4_to__to { 0% {transform: translate(3566.689418px,208px)} 50% {transform: translate(2197.812896px,208px)} 100% {transform: translate(720px,208px)} }]]>
</style>
<g id="e24rw3t964zt2_to" transform="translate(720,208)">
<path id="e24rw3t964zt2" d="M0,224L48,224C96,224,192,224,288,208C384,192,480,160,576,160C672,160,768,192,864,186.700000C960,181,1056,139,1152,117.300000C1248,96,1344,96,1392,96L1440,96L1440,320L1392,320C1344,320,1248,320,1152,320C1056,320,960,320,864,320C768,320,672,320,576,320C480,320,384,320,288,320C192,320,96,320,48,320L0,320Z" transform="translate(-720,-208)" fill="rgb(0,0,0)" stroke="none" stroke-width="1"/>
</g>
<g id="e24rw3t964zt3_to" transform="translate(2141.093552,208)">
<path id="e24rw3t964zt3" d="M0,224L48,224C96,224,192,224,288,208C384,192,480,160,576,160C672,160,768,192,864,186.700000C960,181,1056,139,1152,117.300000C1248,96,1344,96,1392,96L1440,96L1440,320L1392,320C1344,320,1248,320,1152,320C1056,320,960,320,864,320C768,320,672,320,576,320C480,320,384,320,288,320C192,320,96,320,48,320L0,320Z" transform="scale(-1,1) translate(-720,-208)" fill="rgb(0,0,0)" stroke="none" stroke-width="1"/>
</g>
<g id="e24rw3t964zt4_to" transform="translate(3566.689418,208)">
<path id="e24rw3t964zt4" d="M0,224L48,224C96,224,192,224,288,208C384,192,480,160,576,160C672,160,768,192,864,186.700000C960,181,1056,139,1152,117.300000C1248,96,1344,96,1392,96L1440,96L1440,320L1392,320C1344,320,1248,320,1152,320C1056,320,960,320,864,320C768,320,672,320,576,320C480,320,384,320,288,320C192,320,96,320,48,320L0,320Z" transform="translate(-720,-208)" fill="rgb(0,0,0)" stroke="none" stroke-width="1"/>
</g>
</svg>